<mxfile host="app.diagrams.net" modified="2022-12-27T05:20:28.214Z" agent="5.0 (Windows NT 10.0; Win64; x64) AppleWebKit/537.36 (KHTML, like Gecko) Chrome/108.0.0.0 Safari/537.36" etag="F6664tOVj869IQ5BK-FO" version="20.7.4" type="github">
  <diagram id="u1A7Wv8suJlV6ekKMkJ3" name="Page-1">
    <mxGraphModel dx="1221" dy="727" grid="1" gridSize="10" guides="1" tooltips="1" connect="1" arrows="1" fold="1" page="1" pageScale="1" pageWidth="850" pageHeight="1100" math="0" shadow="0">
      <root>
        <mxCell id="0" />
        <mxCell id="1" parent="0" />
        <mxCell id="8ferR3esrWney0wUMfSO-17" value="" style="rounded=0;whiteSpace=wrap;html=1;" parent="1" vertex="1">
          <mxGeometry x="10" y="20" width="830" height="710" as="geometry" />
        </mxCell>
        <mxCell id="8ferR3esrWney0wUMfSO-18" value="Flood API DFD diagram" style="text;html=1;strokeColor=none;fillColor=none;align=center;verticalAlign=middle;whiteSpace=wrap;rounded=0;fontStyle=1;fontSize=14;" parent="1" vertex="1">
          <mxGeometry x="310" y="30" width="180" height="30" as="geometry" />
        </mxCell>
        <mxCell id="8ferR3esrWney0wUMfSO-25" value="" style="rounded=0;whiteSpace=wrap;html=1;labelBackgroundColor=none;fontSize=14;" parent="1" vertex="1">
          <mxGeometry x="20" y="240" width="540" height="290" as="geometry" />
        </mxCell>
        <mxCell id="8ferR3esrWney0wUMfSO-31" value="&lt;b&gt;syns-fda-files &lt;/b&gt;&lt;br&gt;&lt;br&gt;cloud storage" style="ellipse;shape=cloud;whiteSpace=wrap;html=1;labelBackgroundColor=none;fontSize=14;" parent="1" vertex="1">
          <mxGeometry x="30" y="580" width="150" height="110" as="geometry" />
        </mxCell>
        <mxCell id="8ferR3esrWney0wUMfSO-32" value="&lt;b&gt;&lt;br&gt;&lt;br&gt;syns-flood&lt;/b&gt;&lt;br&gt;&lt;br&gt;cloud sql" style="strokeWidth=2;html=1;shape=mxgraph.flowchart.database;whiteSpace=wrap;labelBackgroundColor=none;fontSize=14;" parent="1" vertex="1">
          <mxGeometry x="305" y="584.5" width="90" height="101" as="geometry" />
        </mxCell>
        <mxCell id="8ferR3esrWney0wUMfSO-33" value="" style="group" parent="1" vertex="1" connectable="0">
          <mxGeometry x="680" y="370" width="140" height="80" as="geometry" />
        </mxCell>
        <mxCell id="8ferR3esrWney0wUMfSO-28" value="" style="rounded=0;whiteSpace=wrap;html=1;labelBackgroundColor=none;fontSize=14;" parent="8ferR3esrWney0wUMfSO-33" vertex="1">
          <mxGeometry width="140" height="80" as="geometry" />
        </mxCell>
        <mxCell id="8ferR3esrWney0wUMfSO-29" value="Create pdf" style="text;html=1;strokeColor=none;fillColor=none;align=center;verticalAlign=middle;whiteSpace=wrap;rounded=0;labelBackgroundColor=none;fontSize=14;" parent="8ferR3esrWney0wUMfSO-33" vertex="1">
          <mxGeometry x="10" width="120" height="30" as="geometry" />
        </mxCell>
        <mxCell id="8ferR3esrWney0wUMfSO-30" value="pdf-generate" style="rounded=1;whiteSpace=wrap;html=1;labelBackgroundColor=none;fontSize=14;fontStyle=1" parent="8ferR3esrWney0wUMfSO-33" vertex="1">
          <mxGeometry x="10" y="30" width="120" height="40" as="geometry" />
        </mxCell>
        <mxCell id="O1O7jSlh3-RSl_De3UBC-19" value="" style="endArrow=classic;html=1;rounded=0;entryX=0.113;entryY=1;entryDx=0;entryDy=0;entryPerimeter=0;" parent="1" edge="1">
          <mxGeometry width="50" height="50" relative="1" as="geometry">
            <mxPoint x="135" y="240" as="sourcePoint" />
            <mxPoint x="134.9000000000001" y="170" as="targetPoint" />
          </mxGeometry>
        </mxCell>
        <mxCell id="O1O7jSlh3-RSl_De3UBC-20" value="" style="endArrow=classic;html=1;rounded=0;fontStyle=0;verticalAlign=middle;" parent="1" edge="1">
          <mxGeometry width="50" height="50" relative="1" as="geometry">
            <mxPoint x="302.9000000000001" y="169" as="sourcePoint" />
            <mxPoint x="303" y="240" as="targetPoint" />
          </mxGeometry>
        </mxCell>
        <mxCell id="O1O7jSlh3-RSl_De3UBC-21" value="contract &amp;amp; UUID" style="text;html=1;strokeColor=none;fillColor=none;align=center;verticalAlign=middle;whiteSpace=wrap;rounded=0;" parent="1" vertex="1">
          <mxGeometry x="180" y="190" width="90" height="30" as="geometry" />
        </mxCell>
        <mxCell id="O1O7jSlh3-RSl_De3UBC-22" value="" style="endArrow=classic;html=1;rounded=0;verticalAlign=middle;" parent="1" edge="1">
          <mxGeometry width="50" height="50" relative="1" as="geometry">
            <mxPoint x="150" y="327" as="sourcePoint" />
            <mxPoint x="680" y="327" as="targetPoint" />
          </mxGeometry>
        </mxCell>
        <mxCell id="O1O7jSlh3-RSl_De3UBC-24" value="AOI" style="text;html=1;strokeColor=none;fillColor=none;align=center;verticalAlign=middle;whiteSpace=wrap;rounded=0;" parent="1" vertex="1">
          <mxGeometry x="576" y="302" width="60" height="30" as="geometry" />
        </mxCell>
        <mxCell id="O1O7jSlh3-RSl_De3UBC-29" value="" style="endArrow=classic;startArrow=classic;html=1;rounded=0;verticalAlign=middle;" parent="1" edge="1">
          <mxGeometry width="50" height="50" relative="1" as="geometry">
            <mxPoint x="680" y="411" as="sourcePoint" />
            <mxPoint x="150" y="411" as="targetPoint" />
          </mxGeometry>
        </mxCell>
        <mxCell id="O1O7jSlh3-RSl_De3UBC-30" value="PDF" style="text;html=1;strokeColor=none;fillColor=none;align=center;verticalAlign=middle;whiteSpace=wrap;rounded=0;" parent="1" vertex="1">
          <mxGeometry x="576" y="385" width="60" height="30" as="geometry" />
        </mxCell>
        <mxCell id="O1O7jSlh3-RSl_De3UBC-3" value="&lt;b&gt;Flood-API&lt;/b&gt;" style="rounded=1;whiteSpace=wrap;html=1;" parent="1" vertex="1">
          <mxGeometry x="30" y="250" width="120" height="268" as="geometry" />
        </mxCell>
        <mxCell id="O1O7jSlh3-RSl_De3UBC-6" value="&lt;b&gt;gce-proxy&lt;/b&gt;&lt;span&gt;&amp;nbsp;&lt;/span&gt;&lt;br&gt;&lt;span&gt;(container)&lt;/span&gt;" style="rounded=1;whiteSpace=wrap;html=1;" parent="1" vertex="1">
          <mxGeometry x="290" y="450" width="120" height="60" as="geometry" />
        </mxCell>
        <mxCell id="O1O7jSlh3-RSl_De3UBC-8" value="" style="endArrow=classic;html=1;rounded=0;" parent="1" edge="1">
          <mxGeometry x="30" y="308" width="50" height="50" as="geometry">
            <mxPoint x="150" y="481" as="sourcePoint" />
            <mxPoint x="290" y="481" as="targetPoint" />
          </mxGeometry>
        </mxCell>
        <mxCell id="O1O7jSlh3-RSl_De3UBC-32" value="" style="endArrow=classic;startArrow=classic;html=1;rounded=0;verticalAlign=middle;exitX=0.459;exitY=0.091;exitDx=0;exitDy=0;exitPerimeter=0;jumpSize=6;" parent="1" edge="1">
          <mxGeometry width="50" height="50" relative="1" as="geometry">
            <mxPoint x="99" y="590" as="sourcePoint" />
            <mxPoint x="99" y="517" as="targetPoint" />
          </mxGeometry>
        </mxCell>
        <mxCell id="O1O7jSlh3-RSl_De3UBC-34" value="PDF, Shapefile" style="text;html=1;strokeColor=none;fillColor=none;align=center;verticalAlign=middle;whiteSpace=wrap;rounded=0;" parent="1" vertex="1">
          <mxGeometry x="60" y="690" width="110" height="30" as="geometry" />
        </mxCell>
        <mxCell id="O1O7jSlh3-RSl_De3UBC-35" value="" style="endArrow=classic;html=1;rounded=0;verticalAlign=middle;exitX=0.5;exitY=1;exitDx=0;exitDy=0;entryX=0.5;entryY=0;entryDx=0;entryDy=0;entryPerimeter=0;" parent="1" source="O1O7jSlh3-RSl_De3UBC-6" target="8ferR3esrWney0wUMfSO-32" edge="1">
          <mxGeometry width="50" height="50" relative="1" as="geometry">
            <mxPoint x="400" y="390" as="sourcePoint" />
            <mxPoint x="450" y="340" as="targetPoint" />
          </mxGeometry>
        </mxCell>
        <mxCell id="O1O7jSlh3-RSl_De3UBC-37" value="&lt;b&gt;syns-flood-datasearch&lt;/b&gt;" style="rounded=1;whiteSpace=wrap;html=1;" parent="1" vertex="1">
          <mxGeometry x="360" y="344" width="140" height="52" as="geometry" />
        </mxCell>
        <mxCell id="O1O7jSlh3-RSl_De3UBC-40" value="" style="endArrow=classic;html=1;rounded=0;verticalAlign=middle;exitX=1;exitY=0.25;exitDx=0;exitDy=0;" parent="1" edge="1" target="O1O7jSlh3-RSl_De3UBC-37">
          <mxGeometry width="50" height="50" relative="1" as="geometry">
            <mxPoint x="150" y="370.5" as="sourcePoint" />
            <mxPoint x="270" y="370.16666666666674" as="targetPoint" />
          </mxGeometry>
        </mxCell>
        <mxCell id="O1O7jSlh3-RSl_De3UBC-43" value="Search" style="text;html=1;strokeColor=none;fillColor=none;align=center;verticalAlign=middle;whiteSpace=wrap;rounded=0;" parent="1" vertex="1">
          <mxGeometry x="219" y="344" width="60" height="30" as="geometry" />
        </mxCell>
        <mxCell id="8ferR3esrWney0wUMfSO-22" value="" style="group" parent="1" vertex="1" connectable="0">
          <mxGeometry x="20" y="80" width="419" height="89" as="geometry" />
        </mxCell>
        <mxCell id="8ferR3esrWney0wUMfSO-4" value="" style="rounded=0;whiteSpace=wrap;html=1;" parent="8ferR3esrWney0wUMfSO-22" vertex="1">
          <mxGeometry width="419" height="89" as="geometry" />
        </mxCell>
        <mxCell id="8ferR3esrWney0wUMfSO-6" value="Authentication" style="text;html=1;strokeColor=none;fillColor=none;align=center;verticalAlign=middle;whiteSpace=wrap;rounded=0;" parent="8ferR3esrWney0wUMfSO-22" vertex="1">
          <mxGeometry x="1" width="150" height="30" as="geometry" />
        </mxCell>
        <mxCell id="8ferR3esrWney0wUMfSO-21" value="" style="group" parent="8ferR3esrWney0wUMfSO-22" vertex="1" connectable="0">
          <mxGeometry x="9" y="29" width="400" height="50" as="geometry" />
        </mxCell>
        <mxCell id="8ferR3esrWney0wUMfSO-7" value="Citadel aoimod" style="rounded=1;whiteSpace=wrap;html=1;fontStyle=1" parent="8ferR3esrWney0wUMfSO-21" vertex="1">
          <mxGeometry width="120" height="50" as="geometry" />
        </mxCell>
        <mxCell id="8ferR3esrWney0wUMfSO-8" value="Citadel verification" style="rounded=1;whiteSpace=wrap;html=1;fontStyle=1" parent="8ferR3esrWney0wUMfSO-21" vertex="1">
          <mxGeometry x="140" width="120" height="50" as="geometry" />
        </mxCell>
        <mxCell id="8ferR3esrWney0wUMfSO-9" value="Citadel notification" style="rounded=1;whiteSpace=wrap;html=1;fontStyle=1" parent="8ferR3esrWney0wUMfSO-21" vertex="1">
          <mxGeometry x="280" width="120" height="50" as="geometry" />
        </mxCell>
        <mxCell id="8ferR3esrWney0wUMfSO-12" value="Stores polygon" style="text;html=1;strokeColor=none;fillColor=none;align=center;verticalAlign=middle;whiteSpace=wrap;rounded=0;" parent="1" vertex="1">
          <mxGeometry x="200" y="260" width="101" height="30" as="geometry" />
        </mxCell>
        <mxCell id="8ferR3esrWney0wUMfSO-13" value="ShapeDB" style="rounded=1;whiteSpace=wrap;html=1;fontStyle=1" parent="1" vertex="1">
          <mxGeometry x="360" y="260" width="140" height="50" as="geometry" />
        </mxCell>
        <mxCell id="1bbWs1T21gGKabPvUCaj-4" value="" style="endArrow=classic;startArrow=classic;html=1;rounded=0;entryX=0;entryY=0.5;entryDx=0;entryDy=0;exitX=1.001;exitY=0.14;exitDx=0;exitDy=0;exitPerimeter=0;" edge="1" parent="1">
          <mxGeometry width="50" height="50" relative="1" as="geometry">
            <mxPoint x="150.1199999999999" y="287.52" as="sourcePoint" />
            <mxPoint x="360" y="286" as="targetPoint" />
          </mxGeometry>
        </mxCell>
        <mxCell id="1bbWs1T21gGKabPvUCaj-8" value="" style="whiteSpace=wrap;html=1;rounded=0;" vertex="1" parent="1">
          <mxGeometry x="680" y="280" width="140" height="80" as="geometry" />
        </mxCell>
        <mxCell id="1bbWs1T21gGKabPvUCaj-10" value="&lt;span style=&quot;font-size: 14px; font-weight: 700;&quot;&gt;ARM&lt;/span&gt;" style="rounded=1;whiteSpace=wrap;html=1;" vertex="1" parent="1">
          <mxGeometry x="700" y="320" width="100" height="30" as="geometry" />
        </mxCell>
        <mxCell id="1bbWs1T21gGKabPvUCaj-11" value="Create deployment" style="text;html=1;strokeColor=none;fillColor=none;align=center;verticalAlign=middle;whiteSpace=wrap;rounded=0;" vertex="1" parent="1">
          <mxGeometry x="690" y="291" width="120" height="20" as="geometry" />
        </mxCell>
      </root>
    </mxGraphModel>
  </diagram>
</mxfile>
